<svg xmlns="http://www.w3.org/2000/svg" xmlns:xlink="http://www.w3.org/1999/xlink" width="258" height="92" viewBox="0 0 258 92">
  <defs>
    <filter id="Rectangle_11" x="0" y="0" width="258" height="92" filterUnits="userSpaceOnUse">
      <feOffset input="SourceAlpha"/>
      <feGaussianBlur stdDeviation="4" result="blur"/>
      <feFlood flood-opacity="0.161"/>
      <feComposite operator="in" in2="blur"/>
      <feComposite in="SourceGraphic"/>
    </filter>
  </defs>
  <g id="Composant_9_1" data-name="Composant 9 – 1" transform="translate(12 12)">
    <g transform="matrix(1, 0, 0, 1, -12, -12)" filter="url(#Rectangle_11)">
      <g id="Rectangle_11-2" data-name="Rectangle 11" transform="translate(12 12)" fill="#e8e8e8" stroke="#707070" stroke-width="1">
        <rect width="234" height="68" rx="34" stroke="none"/>
        <rect x="0.5" y="0.5" width="233" height="67" rx="33.5" fill="none"/>
      </g>
    </g>
    <g id="SVGRepo_iconCarrier" transform="translate(15.5 19.405)" opacity="0.9">
      <g id="Groupe_3" data-name="Groupe 3">
        <path id="Tracé_44" data-name="Tracé 44" d="M33.037,2.528A31.764,31.764,0,0,0,24.991,0,23.613,23.613,0,0,0,23.96,2.14a29.544,29.544,0,0,0-8.917,0A22.874,22.874,0,0,0,14,0,31.658,31.658,0,0,0,5.948,2.535,33.744,33.744,0,0,0,.166,25.13a32.17,32.17,0,0,0,9.868,5.057,24.547,24.547,0,0,0,2.113-3.481,20.776,20.776,0,0,1-3.328-1.62c.279-.207.552-.423.816-.645a22.741,22.741,0,0,0,19.73,0c.267.222.54.439.816.645a20.72,20.72,0,0,1-3.334,1.623A24.425,24.425,0,0,0,28.96,30.19a32.1,32.1,0,0,0,9.874-5.06A33.711,33.711,0,0,0,33.037,2.528ZM13.021,20.581a3.786,3.786,0,0,1-3.506-3.988A3.766,3.766,0,0,1,13.021,12.6a3.742,3.742,0,0,1,3.506,3.991A3.761,3.761,0,0,1,13.021,20.581Zm12.957,0a3.785,3.785,0,0,1-3.506-3.988A3.766,3.766,0,0,1,25.978,12.6a3.742,3.742,0,0,1,3.506,3.991A3.763,3.763,0,0,1,25.978,20.581Z" transform="translate(0)" fill="none" stroke="#272727" stroke-width="4"/>
      </g>
    </g>
    <g id="Composant_10_1" data-name="Composant 10 – 1" transform="translate(70 10)">
      <text id="Discord" transform="translate(68 37)" fill="#1c1c1c" font-size="35" font-family="Poppins-SemiBold, Poppins" font-weight="600"><tspan x="-67.585" y="0">Discord</tspan></text>
    </g>
  </g>
</svg>
