<svg xmlns="http://www.w3.org/2000/svg" width="42.994" height="34.738" viewBox="0 0 42.994 34.738">
  <g id="SVGRepo_iconCarrier" transform="translate(1.995 2.214)" opacity="0.9">
    <g id="Groupe_3" data-name="Groupe 3">
      <path id="Tracé_44" data-name="Tracé 44" d="M33.037,2.528A31.764,31.764,0,0,0,24.991,0,23.613,23.613,0,0,0,23.96,2.14a29.544,29.544,0,0,0-8.917,0A22.874,22.874,0,0,0,14,0,31.658,31.658,0,0,0,5.948,2.535,33.744,33.744,0,0,0,.166,25.13a32.17,32.17,0,0,0,9.868,5.057,24.547,24.547,0,0,0,2.113-3.481,20.776,20.776,0,0,1-3.328-1.62c.279-.207.552-.423.816-.645a22.741,22.741,0,0,0,19.73,0c.267.222.54.439.816.645a20.72,20.72,0,0,1-3.334,1.623A24.425,24.425,0,0,0,28.96,30.19a32.1,32.1,0,0,0,9.874-5.06A33.711,33.711,0,0,0,33.037,2.528ZM13.021,20.581a3.786,3.786,0,0,1-3.506-3.988A3.766,3.766,0,0,1,13.021,12.6a3.742,3.742,0,0,1,3.506,3.991A3.761,3.761,0,0,1,13.021,20.581Zm12.957,0a3.785,3.785,0,0,1-3.506-3.988A3.766,3.766,0,0,1,25.978,12.6a3.742,3.742,0,0,1,3.506,3.991A3.763,3.763,0,0,1,25.978,20.581Z" transform="translate(0)" fill="none" stroke="#272727" stroke-width="4"/>
    </g>
  </g>
</svg>
